<svg width="375" height="103" viewBox="0 0 375 103" fill="none" xmlns="http://www.w3.org/2000/svg">
<path fill-rule="evenodd" clip-rule="evenodd" d="M58.4125 57.8103C71.9011 57.8103 82.8358 46.874 82.8358 33.3834C82.8358 19.8928 71.9011 8.95651 58.4125 8.95651C44.9239 8.95651 33.9892 19.8928 33.9892 33.3834C33.9892 46.874 44.9239 57.8103 58.4125 57.8103ZM66.0063 44.6536C67.4566 43.3269 68.1818 41.6403 68.1818 39.5938C68.1818 37.9424 67.6824 36.5452 66.6836 35.4019C65.6847 34.2587 63.8855 33.1719 61.2858 32.1416L59.726 31.5276V23.8214C61.8468 23.9908 63.9813 24.513 66.1294 25.3881L67.6277 21.5138C65.1374 20.4552 62.5035 19.8766 59.726 19.7778V16.2846H56.9963V19.8413C54.4787 20.1095 52.4811 20.8716 51.0034 22.1278C49.5393 23.3839 48.8073 24.9858 48.8073 26.9336C48.8073 28.7543 49.3204 30.2856 50.3466 31.5276C51.3865 32.7556 53.0284 33.8141 55.2723 34.7033L56.9963 35.3596V43.2775C55.7512 43.2634 54.3419 43.0587 52.7684 42.6636C51.1949 42.2543 49.8198 41.7532 48.6431 41.1604V45.6275C50.8187 46.6437 53.6031 47.18 56.9963 47.2365V51.7035H59.726V47.1095C62.4625 46.7989 64.5559 45.9803 66.0063 44.6536ZM62.4967 37.9001C63.0577 38.4223 63.3382 39.0927 63.3382 39.9113C63.3382 41.6615 62.1341 42.7271 59.726 43.1081V36.3546C61.0258 36.8486 61.9494 37.3638 62.4967 37.9001ZM54.3487 28.9025C53.8699 28.3661 53.6304 27.6957 53.6304 26.8912C53.6304 26.1149 53.9177 25.4657 54.4924 24.9435C55.0671 24.4213 55.9017 24.0755 56.9963 23.9061V30.4903C55.7238 29.9681 54.8413 29.4388 54.3487 28.9025Z" fill="#00BCD4"/>
<path fill-rule="evenodd" clip-rule="evenodd" d="M56.5807 89.5652C62.3134 89.5652 66.9607 84.9173 66.9607 79.1838C66.9607 73.4503 62.3134 68.8024 56.5807 68.8024C50.8481 68.8024 46.2008 73.4503 46.2008 79.1838C46.2008 84.9173 50.8481 89.5652 56.5807 89.5652ZM59.8081 83.9737C60.4245 83.4098 60.7327 82.693 60.7327 81.8232C60.7327 81.1214 60.5204 80.5276 60.0959 80.0417C59.6714 79.5558 58.9068 79.0939 57.8019 78.656L57.139 78.3951V75.12C58.0403 75.192 58.9475 75.4139 59.8604 75.7858L60.4972 74.1392C59.4388 73.6893 58.3194 73.4434 57.139 73.4014V71.9168H55.9789V73.4284C54.9089 73.5424 54.0599 73.8663 53.4319 74.4002C52.8096 74.934 52.4985 75.6148 52.4985 76.4426C52.4985 77.2164 52.7166 77.8673 53.1527 78.3951C53.5947 78.917 54.2925 79.3669 55.2462 79.7448L55.9789 80.0237V83.3888C55.4497 83.3828 54.8507 83.2958 54.182 83.1279C53.5133 82.9539 52.9289 82.741 52.4288 82.489V84.3875C53.3534 84.8194 54.5367 85.0474 55.9789 85.0714V86.9699H57.139V85.0174C58.302 84.8854 59.1917 84.5375 59.8081 83.9737ZM58.3165 81.1034C58.5549 81.3253 58.6742 81.6103 58.6742 81.9582C58.6742 82.702 58.1624 83.1549 57.139 83.3168V80.4466C57.6914 80.6565 58.0839 80.8755 58.3165 81.1034ZM54.8536 77.2794C54.6501 77.0515 54.5484 76.7665 54.5484 76.4246C54.5484 76.0947 54.6705 75.8188 54.9147 75.5968C55.1589 75.3749 55.5137 75.2279 55.9789 75.156V77.9542C55.4381 77.7323 55.063 77.5073 54.8536 77.2794Z" fill="#00BCD4"/>
<path fill-rule="evenodd" clip-rule="evenodd" d="M18.7246 77.3518C27.8294 77.3518 35.2103 69.9698 35.2103 60.8636C35.2103 51.7575 27.8294 44.3755 18.7246 44.3755C9.61972 44.3755 2.2388 51.7575 2.2388 60.8636C2.2388 69.9698 9.61972 77.3518 18.7246 77.3518ZM23.8504 68.471C24.8294 67.5755 25.3189 66.437 25.3189 65.0556C25.3189 63.941 24.9817 62.9978 24.3075 62.2261C23.6333 61.4545 22.4188 60.7209 20.6641 60.0254L19.6112 59.611V54.4093C21.0427 54.5236 22.4835 54.8761 23.9335 55.4668L24.9448 52.8517C23.2639 52.1371 21.486 51.7465 19.6112 51.6798V49.3219H17.7687V51.7227C16.0693 51.9037 14.7209 52.4182 13.7234 53.2661C12.7352 54.114 12.2411 55.1953 12.2411 56.51C12.2411 57.739 12.5874 58.7726 13.2801 59.611C13.982 60.4398 15.0903 61.1544 16.605 61.7546L17.7687 62.1976V67.5422C16.9282 67.5326 15.9769 67.3945 14.9148 67.1277C13.8527 66.8515 12.9245 66.5133 12.1302 66.1131V69.1284C13.5987 69.8143 15.4782 70.1764 17.7687 70.2145V73.2297H19.6112V70.1287C21.4583 69.9191 22.8714 69.3666 23.8504 68.471ZM21.4814 63.9124C21.8601 64.2649 22.0494 64.7174 22.0494 65.27C22.0494 66.4513 21.2367 67.1706 19.6112 67.4278V62.8692C20.4886 63.2027 21.112 63.5504 21.4814 63.9124ZM15.9815 57.839C15.6583 57.477 15.4967 57.0244 15.4967 56.4814C15.4967 55.9574 15.6906 55.5192 16.0785 55.1667C16.4664 54.8142 17.0298 54.5808 17.7687 54.4665V58.9108C16.9097 58.5583 16.314 58.201 15.9815 57.839Z" fill="#00BCD4"/>
<path d="M130.495 6.83438C126.455 6.83438 123.262 8.18391 120.915 10.883C118.585 13.5653 117.42 17.245 117.42 21.9223C117.42 26.7336 118.543 30.4553 120.789 33.0873C123.052 35.7025 126.271 37.0102 130.444 37.0102C133.009 37.0102 135.934 36.5491 139.219 35.6271V39.3739C136.671 40.3295 133.529 40.8073 129.791 40.8073C124.377 40.8073 120.194 39.1644 117.244 35.8786C114.311 32.5928 112.844 27.9239 112.844 21.872C112.844 18.0832 113.548 14.7639 114.956 11.914C116.381 9.06404 118.426 6.86791 121.091 5.32559C123.773 3.78327 126.924 3.01212 130.545 3.01212C134.4 3.01212 137.769 3.71622 140.652 5.12442L138.842 8.79581C136.06 7.48819 133.277 6.83438 130.495 6.83438Z" fill="#FAFAFA"/>
<path d="M178.374 21.872C178.374 27.7563 176.882 32.3832 173.898 35.7528C170.931 39.1225 166.8 40.8073 161.503 40.8073C156.089 40.8073 151.907 39.156 148.956 35.8534C146.023 32.5341 144.557 27.8568 144.557 21.8217C144.557 15.8368 146.032 11.2015 148.982 7.91568C151.932 4.61311 156.122 2.96182 161.553 2.96182C166.833 2.96182 170.956 4.63825 173.923 7.99112C176.89 11.344 178.374 15.9709 178.374 21.872ZM149.082 21.872C149.082 26.851 150.138 30.6313 152.25 33.213C154.379 35.778 157.463 37.0605 161.503 37.0605C165.576 37.0605 168.652 35.778 170.73 33.213C172.809 30.6481 173.848 26.8677 173.848 21.872C173.848 16.9265 172.809 13.1797 170.73 10.6315C168.668 8.06656 165.609 6.78409 161.553 6.78409C157.48 6.78409 154.379 8.07494 152.25 10.6566C150.138 13.2216 149.082 16.96 149.082 21.872Z" fill="#FAFAFA"/>
<path d="M214.536 40.3044H209.658L189.569 9.44962H189.368C189.636 13.0707 189.77 16.39 189.77 19.4076V40.3044H185.823V3.54019H190.65L210.689 34.2692H210.89C210.857 33.8166 210.781 32.3664 210.664 29.9189C210.547 27.4545 210.505 25.6942 210.538 24.6381V3.54019H214.536V40.3044Z" fill="#FAFAFA"/>
<path d="M235.185 40.3044H230.911V7.33731H219.27V3.54019H246.827V7.33731H235.185V40.3044Z" fill="#FAFAFA"/>
<path d="M255.885 25.0153V40.3044H251.611V3.54019H261.693C266.202 3.54019 269.529 4.40355 271.675 6.13028C273.837 7.85701 274.918 10.4555 274.918 13.9257C274.918 18.7873 272.454 22.0732 267.526 23.7831L277.508 40.3044H272.454L263.554 25.0153H255.885ZM255.885 21.3439H261.743C264.76 21.3439 266.973 20.7488 268.381 19.5585C269.789 18.3515 270.493 16.5493 270.493 14.152C270.493 11.7212 269.772 9.96931 268.331 8.89639C266.906 7.82348 264.61 7.28702 261.442 7.28702H255.885V21.3439Z" fill="#FAFAFA"/>
<path d="M314.575 21.872C314.575 27.7563 313.084 32.3832 310.1 35.7528C307.133 39.1225 303.001 40.8073 297.705 40.8073C292.29 40.8073 288.108 39.156 285.158 35.8534C282.225 32.5341 280.758 27.8568 280.758 21.8217C280.758 15.8368 282.233 11.2015 285.183 7.91568C288.134 4.61311 292.324 2.96182 297.755 2.96182C303.035 2.96182 307.158 4.63825 310.125 7.99112C313.092 11.344 314.575 15.9709 314.575 21.872ZM285.284 21.872C285.284 26.851 286.34 30.6313 288.452 33.213C290.581 35.778 293.665 37.0605 297.705 37.0605C301.778 37.0605 304.854 35.778 306.932 33.213C309.01 30.6481 310.05 26.8677 310.05 21.872C310.05 16.9265 309.01 13.1797 306.932 10.6315C304.87 8.06656 301.811 6.78409 297.755 6.78409C293.682 6.78409 290.581 8.07494 288.452 10.6566C286.34 13.2216 285.284 16.96 285.284 21.872Z" fill="#FAFAFA"/>
<path d="M322.025 40.3044V3.54019H326.299V36.4318H342.516V40.3044H322.025Z" fill="#FAFAFA"/>
<path d="M368.496 40.3044H348.004V3.54019H368.496V7.33731H352.279V19.1813H367.515V22.9533H352.279V36.4821H368.496V40.3044Z" fill="#FAFAFA"/>
<path d="M134.675 99.6413L122.746 60.7659H122.441C122.871 68.6743 123.085 73.9503 123.085 76.594V99.6413H113.698V50.0896H127.999L139.724 87.9821H139.928L152.365 50.0896H166.665V99.6413H156.872V76.1873C156.872 75.0801 156.883 73.8035 156.906 72.3574C156.951 70.9113 157.109 67.07 157.38 60.8337H157.075L144.299 99.6413H134.675Z" fill="#00BCD4"/>
<path d="M203.887 99.6413H175.353V50.0896H203.887V58.6985H185.858V69.5781H202.633V78.187H185.858V90.9647H203.887V99.6413Z" fill="#00BCD4"/>
<path d="M254.392 99.6413H241.04L219.487 62.1555H219.182C219.612 68.776 219.826 73.4984 219.826 76.3229V99.6413H210.439V50.0896H223.69L245.209 87.2025H245.446C245.107 80.7629 244.938 76.2099 244.938 73.5436V50.0896H254.392V99.6413Z" fill="#00BCD4"/>
<path d="M292.325 85.8807C292.325 90.3546 290.71 93.8795 287.479 96.4554C284.271 99.0312 279.798 100.319 274.06 100.319C268.773 100.319 264.097 99.325 260.03 97.3366V87.5754C263.374 89.0667 266.198 90.1173 268.502 90.7274C270.829 91.3375 272.953 91.6425 274.873 91.6425C277.177 91.6425 278.94 91.2019 280.16 90.3207C281.402 89.4395 282.023 88.129 282.023 86.3891C282.023 85.4175 281.752 84.5589 281.21 83.8132C280.668 83.045 279.866 82.3106 278.804 81.6102C277.765 80.9097 275.63 79.7913 272.399 78.2548C269.372 76.8313 267.101 75.4642 265.588 74.1537C264.074 72.8432 262.865 71.318 261.962 69.5781C261.058 67.8383 260.606 65.8047 260.606 63.4774C260.606 59.0939 262.086 55.6481 265.045 53.14C268.028 50.6319 272.139 49.3779 277.381 49.3779C279.956 49.3779 282.407 49.6829 284.734 50.293C287.084 50.903 289.535 51.7617 292.088 52.8688L288.699 61.0371C286.056 59.9525 283.865 59.1956 282.125 58.7662C280.408 58.3369 278.714 58.1223 277.042 58.1223C275.054 58.1223 273.529 58.5855 272.467 59.5119C271.405 60.4383 270.874 61.6472 270.874 63.1384C270.874 64.0649 271.089 64.8783 271.518 65.5788C271.947 66.2566 272.625 66.9232 273.551 67.5784C274.5 68.2111 276.726 69.3635 280.227 71.0355C284.859 73.2499 288.033 75.4755 289.75 77.7125C291.467 79.9268 292.325 82.6496 292.325 85.8807Z" fill="#00BCD4"/>
<path d="M327.818 99.6413L324.226 87.8465H306.164L302.572 99.6413H291.253L308.739 49.8862H321.583L339.137 99.6413H327.818ZM321.719 79.0343C318.398 68.3467 316.522 62.3024 316.093 60.9015C315.687 59.5006 315.393 58.3934 315.212 57.58C314.467 60.4722 312.332 67.6236 308.807 79.0343H321.719Z" fill="#00BCD4"/>
<path d="M341.589 99.6413V50.0896H352.095V90.9647H372.19V99.6413H341.589Z" fill="#00BCD4"/>
</svg>
